<?xml version="1.0" encoding="UTF-8" standalone="no"?>
<!-- Created with Inkscape (http://www.inkscape.org/) -->

<svg
   xmlns:dc="http://purl.org/dc/elements/1.1/"
   xmlns:cc="http://creativecommons.org/ns#"
   xmlns:rdf="http://www.w3.org/1999/02/22-rdf-syntax-ns#"
   xmlns:svg="http://www.w3.org/2000/svg"
   xmlns="http://www.w3.org/2000/svg"
   version="1.1"
   width="30"
   height="30"
   viewBox="0 0 30 30"
   id="Layer_1"
   xml:space="preserve"><metadata
     id="metadata15"><rdf:RDF><cc:Work
         rdf:about=""><dc:format>image/svg+xml</dc:format><dc:type
           rdf:resource="http://purl.org/dc/dcmitype/StillImage" /><dc:title></dc:title></cc:Work></rdf:RDF></metadata><defs
     id="defs13" /><path
     d="m 19.548555,10.611069 -6.896945,6.946682 -2.60846,-2.60846 -0.9836982,0.983699 3.0947822,3.094783 c 0.13816,0.138159 0.326058,0.248688 0.49185,0.248688 0.165792,0 0.348164,-0.110523 0.486323,-0.243163 l 7.388794,-7.427477 -0.972646,-0.994752 z"
     id="path5"
     style="fill:#86a03e;fill-opacity:1" /><g
     transform="matrix(0.05526397,0,0,0.05526397,0.75327623,0.812765)"
     id="g7"><path
       d="M 256,48 C 141.1,48 48,141.1 48,256 48,370.9 141.1,464 256,464 370.9,464 464,370.9 464,256 464,141.1 370.9,48 256,48 z m 0,398.7 C 150.9,446.7 65.3,361.2 65.3,256 65.3,150.9 150.8,65.3 256,65.3 c 105.1,0 190.7,85.5 190.7,190.7 0,105.1 -85.6,190.7 -190.7,190.7 z"
       id="path9"
       style="fill:#b2dd52;fill-opacity:1;stroke:none" /></g></svg>